<?xml version="1.0" encoding="UTF-8" standalone="no"?>
<!-- Created with Sodipodi ("http://www.sodipodi.com/") -->
<svg
   xmlns:dc="http://purl.org/dc/elements/1.1/"
   xmlns:cc="http://web.resource.org/cc/"
   xmlns:rdf="http://www.w3.org/1999/02/22-rdf-syntax-ns#"
   xmlns:svg="http://www.w3.org/2000/svg"
   xmlns="http://www.w3.org/2000/svg"
   xmlns:sodipodi="http://sodipodi.sourceforge.net/DTD/sodipodi-0.dtd"
   xmlns:inkscape="http://www.inkscape.org/namespaces/inkscape"
   version="1.0"
   x="0"
   y="0"
   width="724.69116"
   height="410"
   id="svg602"
   xml:space="preserve"
   sodipodi:version="0.32"
   inkscape:version="0.44"
   sodipodi:docname="Vector Clock.svg"
   sodipodi:docbase="D:\My Pictures\SVG"><metadata
   id="metadata164"><rdf:RDF><cc:Work
       rdf:about=""><dc:format>image/svg+xml</dc:format><dc:type
         rdf:resource="http://purl.org/dc/dcmitype/StillImage" /></cc:Work></rdf:RDF></metadata><sodipodi:namedview
   inkscape:window-height="977"
   inkscape:window-width="1280"
   inkscape:pageshadow="2"
   inkscape:pageopacity="0.0"
   borderopacity="1.0"
   bordercolor="#666666"
   pagecolor="#ffffff"
   id="base"
   inkscape:zoom="1.531792"
   inkscape:cx="373.78147"
   inkscape:cy="206.23088"
   inkscape:window-x="-4"
   inkscape:window-y="-4"
   inkscape:current-layer="svg602"
   height="410px" /><defs
   id="defs604" /><path
   d="M 367.05525,192.7783 L 495.57061,323.0027 L 719.89985,323.227 L 720.77417,66.016898 L 638.18326,66.272598 L 367.05525,192.7783 z "
   style="font-size:12px;fill:#b52487;fill-opacity:0.23699999;fill-rule:evenodd"
   id="path703" /><path
   d="M 41.36927,64.590198 L 41.99428,347.0194 L 73.01245,345.8591 L 372.15555,197.1989 L 284.18465,66.541198 L 41.36927,64.590198 z "
   style="font-size:12px;fill:#455ab5;fill-opacity:0.23699999;fill-rule:evenodd"
   id="path702" /><rect
   width="647.19061"
   height="1"
   x="34.614563"
   y="80.154739"
   style="font-size:12px;fill:gray;fill-rule:evenodd"
   id="rect605" /><text
   x="19.84375"
   y="90.156219"
   style="font-size:32px;font-weight:normal;text-anchor:middle;stroke-width:1;font-family:Luxi Sans"
   id="text606"><tspan
     id="tspan607">A</tspan></text>

<text
   x="38.84375"
   y="28.90625"
   style="font-size:32px;font-weight:normal;text-anchor:middle;stroke-width:1;font-family:Luxi Sans"
   id="text613"><tspan
     id="tspan614">Time</tspan></text>

<g
   style="font-size:12px"
   id="g624"
   transform="translate(-23.65625,-23.4559)"><rect
     width="180.94063"
     height="7.2500954"
     x="34.770813"
     y="63.610607"
     style="fill:gray;fill-rule:evenodd"
     id="rect612" /><path
     d="M 208.75,52.36221 L 208.75,81.11221 L 231.25,67.36221 L 208.75,52.36221 z "
     style="fill:gray;fill-rule:evenodd"
     id="path617" /></g><rect
   width="647.19061"
   height="1"
   x="34.614563"
   y="192.65471"
   style="font-size:12px;fill:gray;fill-rule:evenodd"
   id="rect630" /><text
   x="19.84375"
   y="202.65619"
   style="font-size:32px;font-weight:normal;text-anchor:middle;stroke-width:1;font-family:Luxi Sans"
   id="text631"><tspan
     id="tspan632">B</tspan></text>

<rect
   width="647.19061"
   height="1"
   x="34.614563"
   y="307.65466"
   style="font-size:12px;fill:gray;fill-rule:evenodd"
   id="rect639" /><text
   x="19.84375"
   y="317.65616"
   style="font-size:32px;font-weight:normal;text-anchor:middle;stroke-width:1;font-family:Luxi Sans"
   id="text640"><tspan
     id="tspan641">C</tspan></text>

<rect
   width="11.25"
   height="12.5"
   x="137.34377"
   y="187.0311"
   style="font-size:12px;fill-rule:evenodd"
   id="rect653" /><g
   transform="matrix(0.965705,0,0,0.959017,133.1729,-35.70905)"
   style="font-size:12px"
   id="g664"><path
     d="M 155.0497,128.3383 C 154.7307,127.9653 154.172,127.9201 153.7972,128.237 L 152.0604,129.7053 C 151.6855,130.0222 151.6406,130.5777 151.9596,130.9507 L 233.8829,226.9048 C 234.202,227.2778 234.7607,227.3231 235.1355,227.0061 L 236.8723,225.5378 C 237.2471,225.2209 237.2921,224.6654 236.973,224.2924 L 155.0497,128.3383 z "
     style="fill:gray;fill-rule:evenodd"
     id="path662" /><path
     d="M 239.2159,220.4628 L 230.6008,228.3223 L 242.8681,234.7774 L 239.2159,220.4628 z "
     style="fill:gray;fill-rule:evenodd"
     id="path629" /><path
     d="M 155.0497,128.3383 C 154.7307,127.9653 154.172,127.9201 153.7972,128.237 L 152.0604,129.7053 C 151.6855,130.0222 151.6406,130.5777 151.9596,130.9507 L 233.8829,226.9048 C 234.202,227.2778 234.7607,227.3231 235.1355,227.0061 L 236.8723,225.5378 C 237.2471,225.2209 237.2921,224.6654 236.973,224.2924 L 155.0497,128.3383 z "
     style="fill:gray;fill-rule:evenodd"
     id="path663" /></g><g
   transform="matrix(-0.23374,-0.898812,0.892631,-0.235359,91.47655,361.054)"
   style="font-size:12px"
   id="g668"><path
     d="M 155.0497,128.3383 C 154.7307,127.9653 154.172,127.9201 153.7972,128.237 L 152.0604,129.7053 C 151.6855,130.0222 151.6406,130.5777 151.9596,130.9507 L 233.8829,226.9048 C 234.202,227.2778 234.7607,227.3231 235.1355,227.0061 L 236.8723,225.5378 C 237.2471,225.2209 237.2921,224.6654 236.973,224.2924 L 155.0497,128.3383 z "
     style="fill:gray;fill-rule:evenodd"
     id="path669" /><path
     d="M 239.2159,220.4628 L 230.6008,228.3223 L 242.8681,234.7774 L 239.2159,220.4628 z "
     style="fill:gray;fill-rule:evenodd"
     id="path670" /><path
     d="M 155.0497,128.3383 C 154.7307,127.9653 154.172,127.9201 153.7972,128.237 L 152.0604,129.7053 C 151.6855,130.0222 151.6406,130.5777 151.9596,130.9507 L 233.8829,226.9048 C 234.202,227.2778 234.7607,227.3231 235.1355,227.0061 L 236.8723,225.5378 C 237.2471,225.2209 237.2921,224.6654 236.973,224.2924 L 155.0497,128.3383 z "
     style="fill:gray;fill-rule:evenodd"
     id="path671" /></g><g
   transform="matrix(0.999802,-1.985075e-2,1.985075e-2,0.999802,270.3295,73.4556)"
   style="font-size:12px"
   id="g676"><path
     d="M 155.0497,128.3383 C 154.7307,127.9653 154.172,127.9201 153.7972,128.237 L 152.0604,129.7053 C 151.6855,130.0222 151.6406,130.5777 151.9596,130.9507 L 233.8829,226.9048 C 234.202,227.2778 234.7607,227.3231 235.1355,227.0061 L 236.8723,225.5378 C 237.2471,225.2209 237.2921,224.6654 236.973,224.2924 L 155.0497,128.3383 z "
     style="fill:gray;fill-rule:evenodd"
     id="path677" /><path
     d="M 239.2159,220.4628 L 230.6008,228.3223 L 242.8681,234.7774 L 239.2159,220.4628 z "
     style="fill:gray;fill-rule:evenodd"
     id="path678" /><path
     d="M 155.0497,128.3383 C 154.7307,127.9653 154.172,127.9201 153.7972,128.237 L 152.0604,129.7053 C 151.6855,130.0222 151.6406,130.5777 151.9596,130.9507 L 233.8829,226.9048 C 234.202,227.2778 234.7607,227.3231 235.1355,227.0061 L 236.8723,225.5378 C 237.2471,225.2209 237.2921,224.6654 236.973,224.2924 L 155.0497,128.3383 z "
     style="fill:gray;fill-rule:evenodd"
     id="path679" /></g><g
   transform="matrix(0.945128,0,0,0.970726,144.4204,75.9169)"
   style="font-size:12px"
   id="g680"><path
     d="M 155.0497,128.3383 C 154.7307,127.9653 154.172,127.9201 153.7972,128.237 L 152.0604,129.7053 C 151.6855,130.0222 151.6406,130.5777 151.9596,130.9507 L 233.8829,226.9048 C 234.202,227.2778 234.7607,227.3231 235.1355,227.0061 L 236.8723,225.5378 C 237.2471,225.2209 237.2921,224.6654 236.973,224.2924 L 155.0497,128.3383 z "
     style="fill:gray;fill-rule:evenodd"
     id="path681" /><path
     d="M 239.2159,220.4628 L 230.6008,228.3223 L 242.8681,234.7774 L 239.2159,220.4628 z "
     style="fill:gray;fill-rule:evenodd"
     id="path682" /><path
     d="M 155.0497,128.3383 C 154.7307,127.9653 154.172,127.9201 153.7972,128.237 L 152.0604,129.7053 C 151.6855,130.0222 151.6406,130.5777 151.9596,130.9507 L 233.8829,226.9048 C 234.202,227.2778 234.7607,227.3231 235.1355,227.0061 L 236.8723,225.5378 C 237.2471,225.2209 237.2921,224.6654 236.973,224.2924 L 155.0497,128.3383 z "
     style="fill:gray;fill-rule:evenodd"
     id="path683" /></g><g
   transform="matrix(-0.205647,-0.93856,0.941213,-0.205067,-33.76705,475.0205)"
   style="font-size:12px"
   id="g697"><path
     d="M 155.0497,128.3383 C 154.7307,127.9653 154.172,127.9201 153.7972,128.237 L 152.0604,129.7053 C 151.6855,130.0222 151.6406,130.5777 151.9596,130.9507 L 233.8829,226.9048 C 234.202,227.2778 234.7607,227.3231 235.1355,227.0061 L 236.8723,225.5378 C 237.2471,225.2209 237.2921,224.6654 236.973,224.2924 L 155.0497,128.3383 z "
     style="fill:gray;fill-rule:evenodd"
     id="path698" /><path
     d="M 239.2159,220.4628 L 230.6008,228.3223 L 242.8681,234.7774 L 239.2159,220.4628 z "
     style="fill:gray;fill-rule:evenodd"
     id="path699" /><path
     d="M 155.0497,128.3383 C 154.7307,127.9653 154.172,127.9201 153.7972,128.237 L 152.0604,129.7053 C 151.6855,130.0222 151.6406,130.5777 151.9596,130.9507 L 233.8829,226.9048 C 234.202,227.2778 234.7607,227.3231 235.1355,227.0061 L 236.8723,225.5378 C 237.2471,225.2209 237.2921,224.6654 236.973,224.2924 L 155.0497,128.3383 z "
     style="fill:gray;fill-rule:evenodd"
     id="path700" /></g><g
   transform="matrix(0.951025,0,0,0.967159,-21.82762,-27.64195)"
   style="font-size:12px"
   id="g704"><path
     d="M 568.4155,127.8717 L 577.6377,131.93 L 578.432,119.94 L 568.4155,127.8717 z "
     style="fill:gray;fill-rule:evenodd"
     id="path695" /><path
     d="M 155.0497,128.3383 C 154.7307,127.9653 154.172,127.9201 153.7972,128.237 L 152.0604,129.7053 C 151.6855,130.0222 151.6406,130.5777 151.9596,130.9507 L 330.6068,347.4786 C 330.9259,347.8516 331.4846,347.8969 331.8594,347.5799 L 333.5962,346.1116 C 332.4304,347.4863 332.6982,344.6538 333.6969,344.8662 L 155.0497,128.3383 z "
     transform="matrix(-0.350514,-0.792181,0.789169,-0.351981,416.7191,514.3477)"
     style="fill:gray;fill-rule:evenodd"
     id="path694" /></g><g
   transform="matrix(0.961908,0,0,0.978106,91.87715,-31.45497)"
   style="font-size:12px"
   id="g707"><path
     d="M 568.4155,127.8717 L 577.6377,131.93 L 578.432,119.94 L 568.4155,127.8717 z "
     style="fill:gray;fill-rule:evenodd"
     id="path708" /><path
     d="M 155.0497,128.3383 C 154.7307,127.9653 154.172,127.9201 153.7972,128.237 L 152.0604,129.7053 C 151.6855,130.0222 151.6406,130.5777 151.9596,130.9507 L 330.6068,347.4786 C 330.9259,347.8516 331.4846,347.8969 331.8594,347.5799 L 333.5962,346.1116 C 332.4304,347.4863 332.6982,344.6538 333.6969,344.8662 L 155.0497,128.3383 z "
     transform="matrix(-0.350514,-0.792181,0.789169,-0.351981,416.7191,514.3477)"
     style="fill:gray;fill-rule:evenodd"
     id="path709" /></g><rect
   width="11.25"
   height="12.5"
   x="167.96878"
   y="187.03104"
   style="font-size:12px;fill-rule:evenodd"
   id="rect712" /><rect
   width="11.25"
   height="12.5"
   x="271.09378"
   y="76.406067"
   style="font-size:12px;fill-rule:evenodd"
   id="rect618" /><rect
   width="11.25"
   height="12.5"
   x="361.71884"
   y="188.90601"
   style="font-size:12px;fill-rule:evenodd"
   id="rect716" /><rect
   width="11.25"
   height="12.5"
   x="417.34384"
   y="188.90598"
   style="font-size:12px;fill-rule:evenodd"
   id="rect720" /><rect
   width="11.25"
   height="12.5"
   x="51.093735"
   y="302.6561"
   style="font-size:12px;fill-rule:evenodd"
   id="rect643" /><rect
   width="11.25"
   height="12.5"
   x="372.96881"
   y="302.65607"
   style="font-size:12px;fill-rule:evenodd"
   id="rect730" /><rect
   width="11.25"
   height="12.5"
   x="416.71881"
   y="302.03104"
   style="font-size:12px;fill-rule:evenodd"
   id="rect734" /><rect
   width="11.25"
   height="12.5"
   x="510.46887"
   y="303.90601"
   style="font-size:12px;fill-rule:evenodd"
   id="rect738" /><rect
   width="11.25"
   height="12.5"
   x="538.59387"
   y="303.90598"
   style="font-size:12px;fill-rule:evenodd"
   id="rect742" /><rect
   width="11.25"
   height="12.5"
   x="241.09378"
   y="75.781036"
   style="font-size:12px;fill-rule:evenodd"
   id="rect751" /><text
   x="245.54947"
   y="108.90591"
   style="font-size:18px;font-weight:normal;text-anchor:middle;fill:#d90000;stroke-width:1;font-family:Luxi Sans"
   id="text752"
   xml:space="preserve"><tspan
     x="245.54947"
     y="108.90591"
     id="tspan753">A:1</tspan></text>

<rect
   width="11.25"
   height="12.5"
   x="529.21887"
   y="75.781036"
   style="font-size:12px;fill-rule:evenodd"
   id="rect755" /><rect
   width="11.25"
   height="12.5"
   x="649.21887"
   y="75.156006"
   style="font-size:12px;fill-rule:evenodd"
   id="rect759" /><rect
   width="11.25"
   height="12.5"
   x="277.34381"
   y="187.03098"
   style="font-size:12px;fill-rule:evenodd"
   id="rect763" /><text
   x="-75.339165"
   y="169.78624"
   transform="matrix(0.438411,-0.898775,0.898775,0.438411,0,0)"
   style="font-size:24.00007629px;font-weight:normal;text-anchor:middle;fill:#0000bc;stroke:#0000bc;stroke-width:1.00000358;font-family:Luxi Sans"
   id="text767"
   xml:space="preserve"><tspan
     x="-75.339165"
     y="169.78624"
     id="tspan774"
     style="stroke-width:1.00000358">Cause</tspan></text>

<text
   x="66.625061"
   y="692.25604"
   transform="matrix(0.438411,-0.898775,0.898775,0.438411,0,0)"
   style="font-size:24.00008392px;font-weight:normal;text-anchor:middle;fill:#c90072;stroke:#c90072;stroke-width:1.00000393;font-family:Luxi Sans"
   id="text776"
   xml:space="preserve"><tspan
     x="66.625061"
     y="692.25604"
     id="tspan779"
     style="stroke-width:1.00000393">Effect</tspan></text>

<text
   x="6.3354335"
   y="421.78192"
   transform="matrix(0.763489,-0.64582,0.64582,0.763489,0,0)"
   style="font-size:23.99988747px;font-weight:normal;text-anchor:middle;fill:#c9c9c9;stroke:#c9c9c9;stroke-width:0.99999541;font-family:Luxi Sans"
   id="text784"
   xml:space="preserve"><tspan
     x="6.3354335"
     y="421.78192"
     style="fill:#c9c9c9;stroke:#c9c9c9;stroke-width:0.99999541"
     id="tspan787">Independent</tspan></text>

<text
   x="264.57513"
   y="343.7178"
   transform="matrix(0.763489,-0.64582,0.64582,0.763489,0,0)"
   style="font-size:23.99988747px;font-weight:normal;text-anchor:middle;fill:#c9c9c9;stroke:#c9c9c9;stroke-width:0.99999541;font-family:Luxi Sans"
   id="text789"
   xml:space="preserve"><tspan
     x="264.57513"
     y="343.7178"
     style="fill:#c9c9c9;stroke:#c9c9c9;stroke-width:0.99999541"
     id="tspan790">Independent</tspan></text>

<rect
   width="35"
   height="61.250004"
   x="230.54953"
   y="92.03096"
   style="font-size:12px;fill:none;fill-rule:evenodd;stroke:black;stroke-width:0.96922898"
   id="rect792" /><text
   x="245.54947"
   y="128.28088"
   style="font-size:18px;font-weight:normal;text-anchor:middle;fill:#d90000;stroke-width:1;font-family:Luxi Sans"
   id="text793"
   xml:space="preserve"><tspan
     x="245.54947"
     y="128.28088"
     id="tspan794">B:2</tspan></text>

<text
   x="244.92447"
   y="146.40585"
   style="font-size:18px;font-weight:normal;text-anchor:middle;fill:#d90000;stroke-width:1;font-family:Luxi Sans"
   id="text796"
   xml:space="preserve"><tspan
     x="244.92447"
     y="146.40585"
     id="tspan797">C:1</tspan></text>

<text
   x="19.843716"
   y="112.03088"
   style="font-size:18px;font-weight:normal;text-anchor:middle;stroke-width:1;font-family:Luxi Sans"
   id="text799"
   xml:space="preserve"><tspan
     x="19.843716"
     y="112.03088"
     id="tspan800">A:0</tspan></text>

<rect
   width="35"
   height="61.250004"
   x="4.8437767"
   y="95.15593"
   style="font-size:12px;fill:none;fill-rule:evenodd;stroke:black;stroke-width:0.96922898"
   id="rect802" /><rect
   width="35"
   height="61.250004"
   x="5.4687653"
   y="322.65604"
   style="font-size:12px;fill:none;fill-rule:evenodd;stroke:black;stroke-width:0.96922898"
   id="rect812" /><text
   x="20.468704"
   y="377.03091"
   style="font-size:18px;font-weight:normal;text-anchor:middle;stroke-width:1;font-family:Luxi Sans"
   id="text816"
   xml:space="preserve"><tspan
     x="20.468704"
     y="377.03091"
     id="tspan817">C:0</tspan></text>

<rect
   width="35"
   height="61.250004"
   x="2.3437653"
   y="205.15593"
   style="font-size:12px;fill:none;fill-rule:evenodd;stroke:black;stroke-width:0.96922898"
   id="rect822" /><text
   x="17.343704"
   y="241.40582"
   style="font-size:18px;font-weight:normal;text-anchor:middle;stroke-width:1;font-family:Luxi Sans"
   id="text823"
   xml:space="preserve"><tspan
     x="17.343704"
     y="241.40582"
     id="tspan824">B:0</tspan></text>

<rect
   width="35"
   height="61.250004"
   x="159.58681"
   y="204.51437"
   style="font-size:12px;fill:none;fill-rule:evenodd;stroke:black;stroke-width:0.96922898"
   id="rect832" /><text
   x="174.58675"
   y="240.76431"
   style="font-size:18px;font-weight:normal;text-anchor:middle;fill:#d90000;stroke-width:1;font-family:Luxi Sans"
   id="text833"
   xml:space="preserve"><tspan
     x="174.58675"
     y="240.76431"
     id="tspan834">B:2</tspan></text>

<text
   x="173.96175"
   y="258.88925"
   style="font-size:18px;font-weight:normal;text-anchor:middle;stroke-width:1;font-family:Luxi Sans"
   id="text836"
   xml:space="preserve"><tspan
     x="173.96175"
     y="258.88925"
     id="tspan837">C:1</tspan></text>

<rect
   width="35"
   height="61.250004"
   x="121.08574"
   y="204.51431"
   style="font-size:12px;fill:none;fill-rule:evenodd;stroke:black;stroke-width:0.96922898"
   id="rect842" /><text
   x="136.08568"
   y="240.76425"
   style="font-size:18px;font-weight:normal;text-anchor:middle;fill:#d90000;stroke-width:1;font-family:Luxi Sans"
   id="text843"
   xml:space="preserve"><tspan
     x="136.08568"
     y="240.76425"
     id="tspan844">B:1</tspan></text>

<text
   x="135.46068"
   y="258.88919"
   style="font-size:18px;font-weight:normal;text-anchor:middle;fill:#d90000;stroke-width:1;font-family:Luxi Sans"
   id="text846"
   xml:space="preserve"><tspan
     x="135.46068"
     y="258.88919"
     id="tspan847">C:1</tspan></text>

<rect
   width="35"
   height="61.250004"
   x="45.593468"
   y="316.99777"
   style="font-size:12px;fill:none;fill-rule:evenodd;stroke:black;stroke-width:0.96922898"
   id="rect852" /><text
   x="59.968407"
   y="371.37265"
   style="font-size:18px;font-weight:normal;text-anchor:middle;fill:#d90000;stroke-width:1;font-family:Luxi Sans"
   id="text856"
   xml:space="preserve"><tspan
     x="59.968407"
     y="371.37265"
     id="tspan857">C:1</tspan></text>

<text
   x="284.80548"
   y="108.90588"
   style="font-size:18px;font-weight:normal;text-anchor:middle;fill:#d90000;stroke-width:1;font-family:Luxi Sans"
   id="text859"
   xml:space="preserve"><tspan
     x="284.80548"
     y="108.90588"
     id="tspan860">A:2</tspan></text>

<rect
   width="35"
   height="61.250004"
   x="269.80554"
   y="92.03093"
   style="font-size:12px;fill:none;fill-rule:evenodd;stroke:black;stroke-width:0.96922898"
   id="rect862" /><text
   x="284.80548"
   y="128.28085"
   style="font-size:18px;font-weight:normal;text-anchor:middle;stroke-width:1;font-family:Luxi Sans"
   id="text863"
   xml:space="preserve"><tspan
     x="284.80548"
     y="128.28085"
     id="tspan864">B:2</tspan></text>

<text
   x="284.18048"
   y="146.40582"
   style="font-size:18px;font-weight:normal;text-anchor:middle;stroke-width:1;font-family:Luxi Sans"
   id="text866"
   xml:space="preserve"><tspan
     x="284.18048"
     y="146.40582"
     id="tspan867">C:1</tspan></text>

<text
   x="367.84698"
   y="221.38925"
   style="font-size:18px;font-weight:normal;text-anchor:middle;fill:#d90000;stroke-width:1;font-family:Luxi Sans"
   id="text872"
   xml:space="preserve"><tspan
     x="367.84698"
     y="221.38925"
     id="tspan873">A:2</tspan></text>

<rect
   width="35"
   height="61.250004"
   x="352.84705"
   y="204.51433"
   style="font-size:12px;fill:none;fill-rule:evenodd;stroke:black;stroke-width:0.96922898"
   id="rect875" /><text
   x="367.84698"
   y="240.76425"
   style="font-size:18px;font-weight:normal;text-anchor:middle;fill:#d90000;stroke-width:1;font-family:Luxi Sans"
   id="text876"
   xml:space="preserve"><tspan
     x="367.84698"
     y="240.76425"
     id="tspan877">B:4</tspan></text>

<text
   x="367.22198"
   y="258.88919"
   style="font-size:18px;font-weight:normal;text-anchor:middle;stroke-width:1;font-family:Luxi Sans"
   id="text879"
   xml:space="preserve"><tspan
     x="367.22198"
     y="258.88919"
     id="tspan880">C:1</tspan></text>

<rect
   width="35"
   height="61.250004"
   x="263.76614"
   y="206.02412"
   style="font-size:12px;fill:none;fill-rule:evenodd;stroke:black;stroke-width:0.96922898"
   id="rect882" /><text
   x="278.76608"
   y="242.27405"
   style="font-size:18px;font-weight:normal;text-anchor:middle;fill:#d90000;stroke-width:1;font-family:Luxi Sans"
   id="text883"
   xml:space="preserve"><tspan
     x="278.76608"
     y="242.27405"
     id="tspan884">B:3</tspan></text>

<text
   x="278.14108"
   y="260.39899"
   style="font-size:18px;font-weight:normal;text-anchor:middle;stroke-width:1;font-family:Luxi Sans"
   id="text886"
   xml:space="preserve"><tspan
     x="278.14108"
     y="260.39899"
     id="tspan887">C:1</tspan></text>

<rect
   width="35"
   height="61.250004"
   x="360.39624"
   y="318.50757"
   style="font-size:12px;fill:none;fill-rule:evenodd;stroke:black;stroke-width:0.96922898"
   id="rect889" /><text
   x="375.39618"
   y="354.75751"
   style="font-size:18px;font-weight:normal;text-anchor:middle;fill:#d90000;stroke-width:1;font-family:Luxi Sans"
   id="text890"
   xml:space="preserve"><tspan
     x="375.39618"
     y="354.75751"
     id="tspan891">B:3</tspan></text>

<text
   x="374.77118"
   y="372.88245"
   style="font-size:18px;font-weight:normal;text-anchor:middle;fill:#d90000;stroke-width:1;font-family:Luxi Sans"
   id="text893"
   xml:space="preserve"><tspan
     x="374.77118"
     y="372.88245"
     id="tspan894">C:2</tspan></text>

<rect
   width="35"
   height="61.250004"
   x="407.95639"
   y="318.50754"
   style="font-size:12px;fill:none;fill-rule:evenodd;stroke:black;stroke-width:0.96922898"
   id="rect896" /><text
   x="422.95633"
   y="354.75748"
   style="font-size:18px;font-weight:normal;text-anchor:middle;stroke-width:1;font-family:Luxi Sans"
   id="text897"
   xml:space="preserve"><tspan
     x="422.95633"
     y="354.75748"
     id="tspan898">B:3</tspan></text>

<text
   x="422.33133"
   y="372.88242"
   style="font-size:18px;font-weight:normal;text-anchor:middle;fill:#d90000;stroke-width:1;font-family:Luxi Sans"
   id="text900"
   xml:space="preserve"><tspan
     x="422.33133"
     y="372.88242"
     id="tspan901">C:3</tspan></text>

<text
   x="422.95636"
   y="220.63431"
   style="font-size:18px;font-weight:normal;text-anchor:middle;stroke-width:1;font-family:Luxi Sans"
   id="text903"
   xml:space="preserve"><tspan
     x="422.95636"
     y="220.63431"
     id="tspan904">A:2</tspan></text>

<rect
   width="35"
   height="61.250004"
   x="407.95642"
   y="203.75938"
   style="font-size:12px;fill:none;fill-rule:evenodd;stroke:black;stroke-width:0.96922898"
   id="rect906" /><text
   x="422.95636"
   y="240.00925"
   style="font-size:18px;font-weight:normal;text-anchor:middle;fill:#d90000;stroke-width:1;font-family:Luxi Sans"
   id="text907"
   xml:space="preserve"><tspan
     x="422.95636"
     y="240.00925"
     id="tspan908">B:5</tspan></text>

<text
   x="422.33136"
   y="258.13425"
   style="font-size:18px;font-weight:normal;text-anchor:middle;stroke-width:1;font-family:Luxi Sans"
   id="text910"
   xml:space="preserve"><tspan
     x="422.33136"
     y="258.13425"
     id="tspan911">C:1</tspan></text>

<text
   x="541.47919"
   y="107.39597"
   style="font-size:18px;font-weight:normal;text-anchor:middle;fill:#d90000;stroke-width:1;font-family:Luxi Sans"
   id="text913"
   xml:space="preserve"><tspan
     x="541.47919"
     y="107.39597"
     id="tspan914">A:3</tspan></text>

<rect
   width="35"
   height="61.250004"
   x="526.47925"
   y="90.521011"
   style="font-size:12px;fill:none;fill-rule:evenodd;stroke:black;stroke-width:0.96922898"
   id="rect916" /><text
   x="541.47919"
   y="126.77094"
   style="font-size:18px;font-weight:normal;text-anchor:middle;fill:#d90000;stroke-width:1;font-family:Luxi Sans"
   id="text917"
   xml:space="preserve"><tspan
     x="541.47919"
     y="126.77094"
     id="tspan918">B:3</tspan></text>

<text
   x="540.85419"
   y="144.8959"
   style="font-size:18px;font-weight:normal;text-anchor:middle;fill:#d90000;stroke-width:1;font-family:Luxi Sans"
   id="text920"
   xml:space="preserve"><tspan
     x="540.85419"
     y="144.8959"
     id="tspan921">C:3</tspan></text>

<text
   x="660.7569"
   y="106.64093"
   style="font-size:18px;font-weight:normal;text-anchor:middle;fill:#d90000;stroke-width:1;font-family:Luxi Sans"
   id="text923"
   xml:space="preserve"><tspan
     x="660.7569"
     y="106.64093"
     id="tspan924">A:4</tspan></text>

<rect
   width="35"
   height="61.250004"
   x="645.75702"
   y="89.765984"
   style="font-size:12px;fill:none;fill-rule:evenodd;stroke:black;stroke-width:0.96922898"
   id="rect926" /><text
   x="660.7569"
   y="126.0159"
   style="font-size:18px;font-weight:normal;text-anchor:middle;fill:#d90000;stroke-width:1;font-family:Luxi Sans"
   id="text927"
   xml:space="preserve"><tspan
     x="660.7569"
     y="126.0159"
     id="tspan928">B:5</tspan></text>

<text
   x="660.1319"
   y="144.14087"
   style="font-size:18px;font-weight:normal;text-anchor:middle;fill:#d90000;stroke-width:1;font-family:Luxi Sans"
   id="text930"
   xml:space="preserve"><tspan
     x="660.1319"
     y="144.14087"
     id="tspan931">C:5</tspan></text>

<text
   x="512.03723"
   y="336.13751"
   style="font-size:18px;font-weight:normal;text-anchor:middle;fill:#d90000;stroke-width:1;font-family:Luxi Sans"
   id="text933"
   xml:space="preserve"><tspan
     x="512.03723"
     y="336.13751"
     id="tspan934">A:2</tspan></text>

<rect
   width="35"
   height="61.250004"
   x="497.03729"
   y="319.26257"
   style="font-size:12px;fill:none;fill-rule:evenodd;stroke:black;stroke-width:0.96922898"
   id="rect936" /><text
   x="512.03723"
   y="355.51245"
   style="font-size:18px;font-weight:normal;text-anchor:middle;fill:#d90000;stroke-width:1;font-family:Luxi Sans"
   id="text937"
   xml:space="preserve"><tspan
     x="512.03723"
     y="355.51245"
     id="tspan938">B:5</tspan></text>

<text
   x="511.41223"
   y="373.63745"
   style="font-size:18px;font-weight:normal;text-anchor:middle;fill:#d90000;stroke-width:1;font-family:Luxi Sans"
   id="text940"
   xml:space="preserve"><tspan
     x="511.41223"
     y="373.63745"
     id="tspan941">C:4</tspan></text>

<text
   x="554.31293"
   y="336.13742"
   style="font-size:18px;font-weight:normal;text-anchor:middle;stroke-width:1;font-family:Luxi Sans"
   id="text943"
   xml:space="preserve"><tspan
     x="554.31293"
     y="336.13742"
     id="tspan944">A:2</tspan></text>

<rect
   width="35"
   height="61.250004"
   x="539.31299"
   y="319.26248"
   style="font-size:12px;fill:none;fill-rule:evenodd;stroke:black;stroke-width:0.96922898"
   id="rect946" /><text
   x="554.31293"
   y="355.51239"
   style="font-size:18px;font-weight:normal;text-anchor:middle;stroke-width:1;font-family:Luxi Sans"
   id="text947"
   xml:space="preserve"><tspan
     x="554.31293"
     y="355.51239"
     id="tspan948">B:5</tspan></text>

<text
   x="553.68793"
   y="373.63739"
   style="font-size:18px;font-weight:normal;text-anchor:middle;fill:#d90000;stroke-width:1;font-family:Luxi Sans"
   id="text950"
   xml:space="preserve"><tspan
     x="553.68793"
     y="373.63739"
     id="tspan951">C:5</tspan></text>

</svg>